<?xml version='1.0' encoding='UTF-8' standalone='no'?>
<!-- Created with Fritzing (http://www.fritzing.org/) -->
<svg xmlns:svg='http://www.w3.org/2000/svg' xmlns='http://www.w3.org/2000/svg' version='1.2' baseProfile='tiny' x='0in' y='0in' width='2.60401in' height='1.83958in' viewBox='0 0 187.489 132.45' >
<g partID='62010'><g transform='translate(46.9994,38.8498)' ><g xmlns="http://www.w3.org/2000/svg" id="breadboardbreadboard">
 <path xmlns="http://www.w3.org/2000/svg" d="M0,0L93.6,0,93.6,93.6,0,93.6zM5.94,7.2a1.26,1.26,0,1,0,2.52,0,1.26,1.26,0,1,0,-2.52,0zM13.14,7.2a1.26,1.26,0,1,0,2.52,0,1.26,1.26,0,1,0,-2.52,0zM20.34,7.2a1.26,1.26,0,1,0,2.52,0,1.26,1.26,0,1,0,-2.52,0zM27.54,7.2a1.26,1.26,0,1,0,2.52,0,1.26,1.26,0,1,0,-2.52,0zM34.74,7.2a1.26,1.26,0,1,0,2.52,0,1.26,1.26,0,1,0,-2.52,0zM41.94,7.2a1.26,1.26,0,1,0,2.52,0,1.26,1.26,0,1,0,-2.52,0zM49.14,7.2a1.26,1.26,0,1,0,2.52,0,1.26,1.26,0,1,0,-2.52,0zM56.34,7.2a1.26,1.26,0,1,0,2.52,0,1.26,1.26,0,1,0,-2.52,0zM63.54,7.2a1.26,1.26,0,1,0,2.52,0,1.26,1.26,0,1,0,-2.52,0zM70.74,7.2a1.26,1.26,0,1,0,2.52,0,1.26,1.26,0,1,0,-2.52,0zM77.94,7.2a1.26,1.26,0,1,0,2.52,0,1.26,1.26,0,1,0,-2.52,0zM85.14,7.2a1.26,1.26,0,1,0,2.52,0,1.26,1.26,0,1,0,-2.52,0zM5.94,14.4a1.26,1.26,0,1,0,2.52,0,1.26,1.26,0,1,0,-2.52,0zM13.14,14.4a1.26,1.26,0,1,0,2.52,0,1.26,1.26,0,1,0,-2.52,0zM20.34,14.4a1.26,1.26,0,1,0,2.52,0,1.26,1.26,0,1,0,-2.52,0zM27.54,14.4a1.26,1.26,0,1,0,2.52,0,1.26,1.26,0,1,0,-2.52,0zM34.74,14.4a1.26,1.26,0,1,0,2.52,0,1.26,1.26,0,1,0,-2.52,0zM41.94,14.4a1.26,1.26,0,1,0,2.52,0,1.26,1.26,0,1,0,-2.52,0zM49.14,14.4a1.26,1.26,0,1,0,2.52,0,1.26,1.26,0,1,0,-2.52,0zM56.34,14.4a1.26,1.26,0,1,0,2.52,0,1.26,1.26,0,1,0,-2.52,0zM63.54,14.4a1.26,1.26,0,1,0,2.52,0,1.26,1.26,0,1,0,-2.52,0zM70.74,14.4a1.26,1.26,0,1,0,2.52,0,1.26,1.26,0,1,0,-2.52,0zM77.94,14.4a1.26,1.26,0,1,0,2.52,0,1.26,1.26,0,1,0,-2.52,0zM85.14,14.4a1.26,1.26,0,1,0,2.52,0,1.26,1.26,0,1,0,-2.52,0zM5.94,21.6a1.26,1.26,0,1,0,2.52,0,1.26,1.26,0,1,0,-2.52,0zM13.14,21.6a1.26,1.26,0,1,0,2.52,0,1.26,1.26,0,1,0,-2.52,0zM20.34,21.6a1.26,1.26,0,1,0,2.52,0,1.26,1.26,0,1,0,-2.52,0zM27.54,21.6a1.26,1.26,0,1,0,2.52,0,1.26,1.26,0,1,0,-2.52,0zM34.74,21.6a1.26,1.26,0,1,0,2.52,0,1.26,1.26,0,1,0,-2.52,0zM41.94,21.6a1.26,1.26,0,1,0,2.52,0,1.26,1.26,0,1,0,-2.52,0zM49.14,21.6a1.26,1.26,0,1,0,2.52,0,1.26,1.26,0,1,0,-2.52,0zM56.34,21.6a1.26,1.26,0,1,0,2.52,0,1.26,1.26,0,1,0,-2.52,0zM63.54,21.6a1.26,1.26,0,1,0,2.52,0,1.26,1.26,0,1,0,-2.52,0zM70.74,21.6a1.26,1.26,0,1,0,2.52,0,1.26,1.26,0,1,0,-2.52,0zM77.94,21.6a1.26,1.26,0,1,0,2.52,0,1.26,1.26,0,1,0,-2.52,0zM85.14,21.6a1.26,1.26,0,1,0,2.52,0,1.26,1.26,0,1,0,-2.52,0zM5.94,28.8a1.26,1.26,0,1,0,2.52,0,1.26,1.26,0,1,0,-2.52,0zM13.14,28.8a1.26,1.26,0,1,0,2.52,0,1.26,1.26,0,1,0,-2.52,0zM20.34,28.8a1.26,1.26,0,1,0,2.52,0,1.26,1.26,0,1,0,-2.52,0zM27.54,28.8a1.26,1.26,0,1,0,2.52,0,1.26,1.26,0,1,0,-2.52,0zM34.74,28.8a1.26,1.26,0,1,0,2.52,0,1.26,1.26,0,1,0,-2.52,0zM41.94,28.8a1.26,1.26,0,1,0,2.52,0,1.26,1.26,0,1,0,-2.52,0zM49.14,28.8a1.26,1.26,0,1,0,2.52,0,1.26,1.26,0,1,0,-2.52,0zM56.34,28.8a1.26,1.26,0,1,0,2.52,0,1.26,1.26,0,1,0,-2.52,0zM63.54,28.8a1.26,1.26,0,1,0,2.52,0,1.26,1.26,0,1,0,-2.52,0zM70.74,28.8a1.26,1.26,0,1,0,2.52,0,1.26,1.26,0,1,0,-2.52,0zM77.94,28.8a1.26,1.26,0,1,0,2.52,0,1.26,1.26,0,1,0,-2.52,0zM85.14,28.8a1.26,1.26,0,1,0,2.52,0,1.26,1.26,0,1,0,-2.52,0zM5.94,36a1.26,1.26,0,1,0,2.52,0,1.26,1.26,0,1,0,-2.52,0zM13.14,36a1.26,1.26,0,1,0,2.52,0,1.26,1.26,0,1,0,-2.52,0zM20.34,36a1.26,1.26,0,1,0,2.52,0,1.26,1.26,0,1,0,-2.52,0zM27.54,36a1.26,1.26,0,1,0,2.52,0,1.26,1.26,0,1,0,-2.52,0zM34.74,36a1.26,1.26,0,1,0,2.52,0,1.26,1.26,0,1,0,-2.52,0zM41.94,36a1.26,1.26,0,1,0,2.52,0,1.26,1.26,0,1,0,-2.52,0zM49.14,36a1.26,1.26,0,1,0,2.52,0,1.26,1.26,0,1,0,-2.52,0zM56.34,36a1.26,1.26,0,1,0,2.52,0,1.26,1.26,0,1,0,-2.52,0zM63.54,36a1.26,1.26,0,1,0,2.52,0,1.26,1.26,0,1,0,-2.52,0zM70.74,36a1.26,1.26,0,1,0,2.52,0,1.26,1.26,0,1,0,-2.52,0zM77.94,36a1.26,1.26,0,1,0,2.52,0,1.26,1.26,0,1,0,-2.52,0zM85.14,36a1.26,1.26,0,1,0,2.52,0,1.26,1.26,0,1,0,-2.52,0zM5.94,43.2a1.26,1.26,0,1,0,2.52,0,1.26,1.26,0,1,0,-2.52,0zM13.14,43.2a1.26,1.26,0,1,0,2.52,0,1.26,1.26,0,1,0,-2.52,0zM20.34,43.2a1.26,1.26,0,1,0,2.52,0,1.26,1.26,0,1,0,-2.52,0zM27.54,43.2a1.26,1.26,0,1,0,2.52,0,1.26,1.26,0,1,0,-2.52,0zM34.74,43.2a1.26,1.26,0,1,0,2.52,0,1.26,1.26,0,1,0,-2.52,0zM41.94,43.2a1.26,1.26,0,1,0,2.52,0,1.26,1.26,0,1,0,-2.52,0zM49.14,43.2a1.26,1.26,0,1,0,2.52,0,1.26,1.26,0,1,0,-2.52,0zM56.34,43.2a1.26,1.26,0,1,0,2.52,0,1.26,1.26,0,1,0,-2.52,0zM63.54,43.2a1.26,1.26,0,1,0,2.52,0,1.26,1.26,0,1,0,-2.52,0zM70.74,43.2a1.26,1.26,0,1,0,2.52,0,1.26,1.26,0,1,0,-2.52,0zM77.94,43.2a1.26,1.26,0,1,0,2.52,0,1.26,1.26,0,1,0,-2.52,0zM85.14,43.2a1.26,1.26,0,1,0,2.52,0,1.26,1.26,0,1,0,-2.52,0zM5.94,50.4a1.26,1.26,0,1,0,2.52,0,1.26,1.26,0,1,0,-2.52,0zM13.14,50.4a1.26,1.26,0,1,0,2.52,0,1.26,1.26,0,1,0,-2.52,0zM20.34,50.4a1.26,1.26,0,1,0,2.52,0,1.26,1.26,0,1,0,-2.52,0zM27.54,50.4a1.26,1.26,0,1,0,2.52,0,1.26,1.26,0,1,0,-2.52,0zM34.74,50.4a1.26,1.26,0,1,0,2.52,0,1.26,1.26,0,1,0,-2.52,0zM41.94,50.4a1.26,1.26,0,1,0,2.52,0,1.26,1.26,0,1,0,-2.52,0zM49.14,50.4a1.26,1.26,0,1,0,2.52,0,1.26,1.26,0,1,0,-2.52,0zM56.34,50.4a1.26,1.26,0,1,0,2.52,0,1.26,1.26,0,1,0,-2.52,0zM63.54,50.4a1.26,1.26,0,1,0,2.52,0,1.26,1.26,0,1,0,-2.52,0zM70.74,50.4a1.26,1.26,0,1,0,2.52,0,1.26,1.26,0,1,0,-2.52,0zM77.94,50.4a1.26,1.26,0,1,0,2.52,0,1.26,1.26,0,1,0,-2.52,0zM85.14,50.4a1.26,1.26,0,1,0,2.52,0,1.26,1.26,0,1,0,-2.52,0zM5.94,57.6a1.26,1.26,0,1,0,2.52,0,1.26,1.26,0,1,0,-2.52,0zM13.14,57.6a1.26,1.26,0,1,0,2.52,0,1.26,1.26,0,1,0,-2.52,0zM20.34,57.6a1.26,1.26,0,1,0,2.52,0,1.26,1.26,0,1,0,-2.52,0zM27.54,57.6a1.26,1.26,0,1,0,2.52,0,1.26,1.26,0,1,0,-2.52,0zM34.74,57.6a1.26,1.26,0,1,0,2.52,0,1.26,1.26,0,1,0,-2.52,0zM41.94,57.6a1.26,1.26,0,1,0,2.52,0,1.26,1.26,0,1,0,-2.52,0zM49.14,57.6a1.26,1.26,0,1,0,2.52,0,1.26,1.26,0,1,0,-2.52,0zM56.34,57.6a1.26,1.26,0,1,0,2.52,0,1.26,1.26,0,1,0,-2.52,0zM63.54,57.6a1.26,1.26,0,1,0,2.52,0,1.26,1.26,0,1,0,-2.52,0zM70.74,57.6a1.26,1.26,0,1,0,2.52,0,1.26,1.26,0,1,0,-2.52,0zM77.94,57.6a1.26,1.26,0,1,0,2.52,0,1.26,1.26,0,1,0,-2.52,0zM85.14,57.6a1.26,1.26,0,1,0,2.52,0,1.26,1.26,0,1,0,-2.52,0zM5.94,64.8a1.26,1.26,0,1,0,2.52,0,1.26,1.26,0,1,0,-2.52,0zM13.14,64.8a1.26,1.26,0,1,0,2.52,0,1.26,1.26,0,1,0,-2.52,0zM20.34,64.8a1.26,1.26,0,1,0,2.52,0,1.26,1.26,0,1,0,-2.52,0zM27.54,64.8a1.26,1.26,0,1,0,2.52,0,1.26,1.26,0,1,0,-2.52,0zM34.74,64.8a1.26,1.26,0,1,0,2.52,0,1.26,1.26,0,1,0,-2.52,0zM41.94,64.8a1.26,1.26,0,1,0,2.52,0,1.26,1.26,0,1,0,-2.52,0zM49.14,64.8a1.26,1.26,0,1,0,2.52,0,1.26,1.26,0,1,0,-2.52,0zM56.34,64.8a1.26,1.26,0,1,0,2.52,0,1.26,1.26,0,1,0,-2.52,0zM63.54,64.8a1.26,1.26,0,1,0,2.52,0,1.26,1.26,0,1,0,-2.52,0zM70.74,64.8a1.26,1.26,0,1,0,2.52,0,1.26,1.26,0,1,0,-2.52,0zM77.94,64.8a1.26,1.26,0,1,0,2.52,0,1.26,1.26,0,1,0,-2.52,0zM85.14,64.8a1.26,1.26,0,1,0,2.52,0,1.26,1.26,0,1,0,-2.52,0zM5.94,72a1.26,1.26,0,1,0,2.52,0,1.26,1.26,0,1,0,-2.52,0zM13.14,72a1.26,1.26,0,1,0,2.52,0,1.26,1.26,0,1,0,-2.52,0zM20.34,72a1.26,1.26,0,1,0,2.52,0,1.26,1.26,0,1,0,-2.52,0zM27.54,72a1.26,1.26,0,1,0,2.52,0,1.26,1.26,0,1,0,-2.52,0zM34.74,72a1.26,1.26,0,1,0,2.52,0,1.26,1.26,0,1,0,-2.52,0zM41.94,72a1.26,1.26,0,1,0,2.52,0,1.26,1.26,0,1,0,-2.52,0zM49.14,72a1.26,1.26,0,1,0,2.52,0,1.26,1.26,0,1,0,-2.52,0zM56.34,72a1.26,1.26,0,1,0,2.52,0,1.26,1.26,0,1,0,-2.52,0zM63.54,72a1.26,1.26,0,1,0,2.52,0,1.26,1.26,0,1,0,-2.52,0zM70.74,72a1.26,1.26,0,1,0,2.52,0,1.26,1.26,0,1,0,-2.52,0zM77.94,72a1.26,1.26,0,1,0,2.52,0,1.26,1.26,0,1,0,-2.52,0zM85.14,72a1.26,1.26,0,1,0,2.52,0,1.26,1.26,0,1,0,-2.52,0zM5.94,79.2a1.26,1.26,0,1,0,2.52,0,1.26,1.26,0,1,0,-2.52,0zM13.14,79.2a1.26,1.26,0,1,0,2.52,0,1.26,1.26,0,1,0,-2.52,0zM20.34,79.2a1.26,1.26,0,1,0,2.52,0,1.26,1.26,0,1,0,-2.52,0zM27.54,79.2a1.26,1.26,0,1,0,2.52,0,1.26,1.26,0,1,0,-2.52,0zM34.74,79.2a1.26,1.26,0,1,0,2.52,0,1.26,1.26,0,1,0,-2.52,0zM41.94,79.2a1.26,1.26,0,1,0,2.52,0,1.26,1.26,0,1,0,-2.52,0zM49.14,79.2a1.26,1.26,0,1,0,2.52,0,1.26,1.26,0,1,0,-2.52,0zM56.34,79.2a1.26,1.26,0,1,0,2.52,0,1.26,1.26,0,1,0,-2.52,0zM63.54,79.2a1.26,1.26,0,1,0,2.52,0,1.26,1.26,0,1,0,-2.52,0zM70.74,79.2a1.26,1.26,0,1,0,2.52,0,1.26,1.26,0,1,0,-2.52,0zM77.94,79.2a1.26,1.26,0,1,0,2.52,0,1.26,1.26,0,1,0,-2.52,0zM85.14,79.2a1.26,1.26,0,1,0,2.52,0,1.26,1.26,0,1,0,-2.52,0zM5.94,86.4a1.26,1.26,0,1,0,2.52,0,1.26,1.26,0,1,0,-2.52,0zM13.14,86.4a1.26,1.26,0,1,0,2.52,0,1.26,1.26,0,1,0,-2.52,0zM20.34,86.4a1.26,1.26,0,1,0,2.52,0,1.26,1.26,0,1,0,-2.52,0zM27.54,86.4a1.26,1.26,0,1,0,2.52,0,1.26,1.26,0,1,0,-2.52,0zM34.74,86.4a1.26,1.26,0,1,0,2.52,0,1.26,1.26,0,1,0,-2.52,0zM41.94,86.4a1.26,1.26,0,1,0,2.52,0,1.26,1.26,0,1,0,-2.52,0zM49.14,86.4a1.26,1.26,0,1,0,2.52,0,1.26,1.26,0,1,0,-2.52,0zM56.34,86.4a1.26,1.26,0,1,0,2.52,0,1.26,1.26,0,1,0,-2.52,0zM63.54,86.4a1.26,1.26,0,1,0,2.52,0,1.26,1.26,0,1,0,-2.52,0zM70.74,86.4a1.26,1.26,0,1,0,2.52,0,1.26,1.26,0,1,0,-2.52,0zM77.94,86.4a1.26,1.26,0,1,0,2.52,0,1.26,1.26,0,1,0,-2.52,0zM85.14,86.4a1.26,1.26,0,1,0,2.52,0,1.26,1.26,0,1,0,-2.52,0z" id="boardoutline" fill="#deb675" stroke-width="0" stroke="none" fill-opacity="1"/>
 <path xmlns="http://www.w3.org/2000/svg" d="M0.288,0.288L93.024,0.288,93.024,93.024,0.288,93.024z" fill="none" stroke-width="0.576" stroke="#deb675" stroke-opacity="1"/>
 <circle xmlns="http://www.w3.org/2000/svg" cy="7.2" r="1.98" id="connector0pin" fill="none" connectorname="0.0" cx="7.2" stroke-width="1.44" stroke="#c49c59"/>
 <circle xmlns="http://www.w3.org/2000/svg" cy="7.2" r="1.98" id="connector1pin" fill="none" connectorname="1.0" cx="14.4" stroke-width="1.44" stroke="#c49c59"/>
 <circle xmlns="http://www.w3.org/2000/svg" cy="7.2" r="1.98" id="connector2pin" fill="none" connectorname="2.0" cx="21.6" stroke-width="1.44" stroke="#c49c59"/>
 <circle xmlns="http://www.w3.org/2000/svg" cy="7.2" r="1.98" id="connector3pin" fill="none" connectorname="3.0" cx="28.8" stroke-width="1.44" stroke="#c49c59"/>
 <circle xmlns="http://www.w3.org/2000/svg" cy="7.2" r="1.98" id="connector4pin" fill="none" connectorname="4.0" cx="36" stroke-width="1.44" stroke="#c49c59"/>
 <circle xmlns="http://www.w3.org/2000/svg" cy="7.2" r="1.98" id="connector5pin" fill="none" connectorname="5.0" cx="43.2" stroke-width="1.44" stroke="#c49c59"/>
 <circle xmlns="http://www.w3.org/2000/svg" cy="7.2" r="1.98" id="connector6pin" fill="none" connectorname="6.0" cx="50.4" stroke-width="1.44" stroke="#c49c59"/>
 <circle xmlns="http://www.w3.org/2000/svg" cy="7.2" r="1.98" id="connector7pin" fill="none" connectorname="7.0" cx="57.6" stroke-width="1.44" stroke="#c49c59"/>
 <circle xmlns="http://www.w3.org/2000/svg" cy="7.2" r="1.98" id="connector8pin" fill="none" connectorname="8.0" cx="64.8" stroke-width="1.44" stroke="#c49c59"/>
 <circle xmlns="http://www.w3.org/2000/svg" cy="7.2" r="1.98" id="connector9pin" fill="none" connectorname="9.0" cx="72" stroke-width="1.44" stroke="#c49c59"/>
 <circle xmlns="http://www.w3.org/2000/svg" cy="7.2" r="1.98" id="connector10pin" fill="none" connectorname="10.0" cx="79.2" stroke-width="1.44" stroke="#c49c59"/>
 <circle xmlns="http://www.w3.org/2000/svg" cy="7.2" r="1.98" id="connector11pin" fill="none" connectorname="11.0" cx="86.4" stroke-width="1.44" stroke="#c49c59"/>
 <circle xmlns="http://www.w3.org/2000/svg" cy="14.4" r="1.98" id="connector1000pin" fill="none" connectorname="0.1" cx="7.2" stroke-width="1.44" stroke="#c49c59"/>
 <circle xmlns="http://www.w3.org/2000/svg" cy="14.4" r="1.98" id="connector1001pin" fill="none" connectorname="1.1" cx="14.4" stroke-width="1.44" stroke="#c49c59"/>
 <circle xmlns="http://www.w3.org/2000/svg" cy="14.4" r="1.98" id="connector1002pin" fill="none" connectorname="2.1" cx="21.6" stroke-width="1.44" stroke="#c49c59"/>
 <circle xmlns="http://www.w3.org/2000/svg" cy="14.4" r="1.98" id="connector1003pin" fill="none" connectorname="3.1" cx="28.8" stroke-width="1.44" stroke="#c49c59"/>
 <circle xmlns="http://www.w3.org/2000/svg" cy="14.4" r="1.98" id="connector1004pin" fill="none" connectorname="4.1" cx="36" stroke-width="1.44" stroke="#c49c59"/>
 <circle xmlns="http://www.w3.org/2000/svg" cy="14.4" r="1.98" id="connector1005pin" fill="none" connectorname="5.1" cx="43.2" stroke-width="1.44" stroke="#c49c59"/>
 <circle xmlns="http://www.w3.org/2000/svg" cy="14.4" r="1.98" id="connector1006pin" fill="none" connectorname="6.1" cx="50.4" stroke-width="1.44" stroke="#c49c59"/>
 <circle xmlns="http://www.w3.org/2000/svg" cy="14.4" r="1.98" id="connector1007pin" fill="none" connectorname="7.1" cx="57.6" stroke-width="1.44" stroke="#c49c59"/>
 <circle xmlns="http://www.w3.org/2000/svg" cy="14.4" r="1.98" id="connector1008pin" fill="none" connectorname="8.1" cx="64.8" stroke-width="1.44" stroke="#c49c59"/>
 <circle xmlns="http://www.w3.org/2000/svg" cy="14.4" r="1.98" id="connector1009pin" fill="none" connectorname="9.1" cx="72" stroke-width="1.44" stroke="#c49c59"/>
 <circle xmlns="http://www.w3.org/2000/svg" cy="14.4" r="1.98" id="connector1010pin" fill="none" connectorname="10.1" cx="79.2" stroke-width="1.44" stroke="#c49c59"/>
 <circle xmlns="http://www.w3.org/2000/svg" cy="14.4" r="1.98" id="connector1011pin" fill="none" connectorname="11.1" cx="86.4" stroke-width="1.44" stroke="#c49c59"/>
 <circle xmlns="http://www.w3.org/2000/svg" cy="21.6" r="1.98" id="connector2000pin" fill="none" connectorname="0.2" cx="7.2" stroke-width="1.44" stroke="#c49c59"/>
 <circle xmlns="http://www.w3.org/2000/svg" cy="21.6" r="1.98" id="connector2001pin" fill="none" connectorname="1.2" cx="14.4" stroke-width="1.44" stroke="#c49c59"/>
 <circle xmlns="http://www.w3.org/2000/svg" cy="21.6" r="1.98" id="connector2002pin" fill="none" connectorname="2.2" cx="21.6" stroke-width="1.44" stroke="#c49c59"/>
 <circle xmlns="http://www.w3.org/2000/svg" cy="21.6" r="1.98" id="connector2003pin" fill="none" connectorname="3.2" cx="28.8" stroke-width="1.44" stroke="#c49c59"/>
 <circle xmlns="http://www.w3.org/2000/svg" cy="21.6" r="1.98" id="connector2004pin" fill="none" connectorname="4.2" cx="36" stroke-width="1.44" stroke="#c49c59"/>
 <circle xmlns="http://www.w3.org/2000/svg" cy="21.6" r="1.98" id="connector2005pin" fill="none" connectorname="5.2" cx="43.2" stroke-width="1.44" stroke="#c49c59"/>
 <circle xmlns="http://www.w3.org/2000/svg" cy="21.6" r="1.98" id="connector2006pin" fill="none" connectorname="6.2" cx="50.4" stroke-width="1.44" stroke="#c49c59"/>
 <circle xmlns="http://www.w3.org/2000/svg" cy="21.6" r="1.98" id="connector2007pin" fill="none" connectorname="7.2" cx="57.6" stroke-width="1.44" stroke="#c49c59"/>
 <circle xmlns="http://www.w3.org/2000/svg" cy="21.6" r="1.98" id="connector2008pin" fill="none" connectorname="8.2" cx="64.8" stroke-width="1.44" stroke="#c49c59"/>
 <circle xmlns="http://www.w3.org/2000/svg" cy="21.6" r="1.98" id="connector2009pin" fill="none" connectorname="9.2" cx="72" stroke-width="1.44" stroke="#c49c59"/>
 <circle xmlns="http://www.w3.org/2000/svg" cy="21.6" r="1.98" id="connector2010pin" fill="none" connectorname="10.2" cx="79.2" stroke-width="1.44" stroke="#c49c59"/>
 <circle xmlns="http://www.w3.org/2000/svg" cy="21.6" r="1.98" id="connector2011pin" fill="none" connectorname="11.2" cx="86.4" stroke-width="1.44" stroke="#c49c59"/>
 <circle xmlns="http://www.w3.org/2000/svg" cy="28.8" r="1.98" id="connector3000pin" fill="none" connectorname="0.3" cx="7.2" stroke-width="1.44" stroke="#c49c59"/>
 <circle xmlns="http://www.w3.org/2000/svg" cy="28.8" r="1.98" id="connector3001pin" fill="none" connectorname="1.3" cx="14.4" stroke-width="1.44" stroke="#c49c59"/>
 <circle xmlns="http://www.w3.org/2000/svg" cy="28.8" r="1.98" id="connector3002pin" fill="none" connectorname="2.3" cx="21.6" stroke-width="1.44" stroke="#c49c59"/>
 <circle xmlns="http://www.w3.org/2000/svg" cy="28.8" r="1.98" id="connector3003pin" fill="none" connectorname="3.3" cx="28.8" stroke-width="1.44" stroke="#c49c59"/>
 <circle xmlns="http://www.w3.org/2000/svg" cy="28.8" r="1.98" id="connector3004pin" fill="none" connectorname="4.3" cx="36" stroke-width="1.44" stroke="#c49c59"/>
 <circle xmlns="http://www.w3.org/2000/svg" cy="28.8" r="1.98" id="connector3005pin" fill="none" connectorname="5.3" cx="43.2" stroke-width="1.44" stroke="#c49c59"/>
 <circle xmlns="http://www.w3.org/2000/svg" cy="28.8" r="1.98" id="connector3006pin" fill="none" connectorname="6.3" cx="50.4" stroke-width="1.44" stroke="#c49c59"/>
 <circle xmlns="http://www.w3.org/2000/svg" cy="28.8" r="1.98" id="connector3007pin" fill="none" connectorname="7.3" cx="57.6" stroke-width="1.44" stroke="#c49c59"/>
 <circle xmlns="http://www.w3.org/2000/svg" cy="28.8" r="1.98" id="connector3008pin" fill="none" connectorname="8.3" cx="64.8" stroke-width="1.44" stroke="#c49c59"/>
 <circle xmlns="http://www.w3.org/2000/svg" cy="28.8" r="1.98" id="connector3009pin" fill="none" connectorname="9.3" cx="72" stroke-width="1.44" stroke="#c49c59"/>
 <circle xmlns="http://www.w3.org/2000/svg" cy="28.8" r="1.98" id="connector3010pin" fill="none" connectorname="10.3" cx="79.2" stroke-width="1.44" stroke="#c49c59"/>
 <circle xmlns="http://www.w3.org/2000/svg" cy="28.8" r="1.98" id="connector3011pin" fill="none" connectorname="11.3" cx="86.4" stroke-width="1.44" stroke="#c49c59"/>
 <circle xmlns="http://www.w3.org/2000/svg" cy="36" r="1.98" id="connector4000pin" fill="none" connectorname="0.4" cx="7.2" stroke-width="1.44" stroke="#c49c59"/>
 <circle xmlns="http://www.w3.org/2000/svg" cy="36" r="1.98" id="connector4001pin" fill="none" connectorname="1.4" cx="14.4" stroke-width="1.44" stroke="#c49c59"/>
 <circle xmlns="http://www.w3.org/2000/svg" cy="36" r="1.98" id="connector4002pin" fill="none" connectorname="2.4" cx="21.6" stroke-width="1.44" stroke="#c49c59"/>
 <circle xmlns="http://www.w3.org/2000/svg" cy="36" r="1.98" id="connector4003pin" fill="none" connectorname="3.4" cx="28.8" stroke-width="1.44" stroke="#c49c59"/>
 <circle xmlns="http://www.w3.org/2000/svg" cy="36" r="1.98" id="connector4004pin" fill="none" connectorname="4.4" cx="36" stroke-width="1.44" stroke="#c49c59"/>
 <circle xmlns="http://www.w3.org/2000/svg" cy="36" r="1.98" id="connector4005pin" fill="none" connectorname="5.4" cx="43.2" stroke-width="1.44" stroke="#c49c59"/>
 <circle xmlns="http://www.w3.org/2000/svg" cy="36" r="1.98" id="connector4006pin" fill="none" connectorname="6.4" cx="50.4" stroke-width="1.44" stroke="#c49c59"/>
 <circle xmlns="http://www.w3.org/2000/svg" cy="36" r="1.98" id="connector4007pin" fill="none" connectorname="7.4" cx="57.6" stroke-width="1.44" stroke="#c49c59"/>
 <circle xmlns="http://www.w3.org/2000/svg" cy="36" r="1.98" id="connector4008pin" fill="none" connectorname="8.4" cx="64.8" stroke-width="1.44" stroke="#c49c59"/>
 <circle xmlns="http://www.w3.org/2000/svg" cy="36" r="1.98" id="connector4009pin" fill="none" connectorname="9.4" cx="72" stroke-width="1.44" stroke="#c49c59"/>
 <circle xmlns="http://www.w3.org/2000/svg" cy="36" r="1.98" id="connector4010pin" fill="none" connectorname="10.4" cx="79.2" stroke-width="1.44" stroke="#c49c59"/>
 <circle xmlns="http://www.w3.org/2000/svg" cy="36" r="1.98" id="connector4011pin" fill="none" connectorname="11.4" cx="86.4" stroke-width="1.44" stroke="#c49c59"/>
 <circle xmlns="http://www.w3.org/2000/svg" cy="43.2" r="1.98" id="connector5000pin" fill="none" connectorname="0.5" cx="7.2" stroke-width="1.44" stroke="#c49c59"/>
 <circle xmlns="http://www.w3.org/2000/svg" cy="43.2" r="1.98" id="connector5001pin" fill="none" connectorname="1.5" cx="14.4" stroke-width="1.44" stroke="#c49c59"/>
 <circle xmlns="http://www.w3.org/2000/svg" cy="43.2" r="1.98" id="connector5002pin" fill="none" connectorname="2.5" cx="21.6" stroke-width="1.44" stroke="#c49c59"/>
 <circle xmlns="http://www.w3.org/2000/svg" cy="43.2" r="1.98" id="connector5003pin" fill="none" connectorname="3.5" cx="28.8" stroke-width="1.44" stroke="#c49c59"/>
 <circle xmlns="http://www.w3.org/2000/svg" cy="43.2" r="1.98" id="connector5004pin" fill="none" connectorname="4.5" cx="36" stroke-width="1.44" stroke="#c49c59"/>
 <circle xmlns="http://www.w3.org/2000/svg" cy="43.2" r="1.98" id="connector5005pin" fill="none" connectorname="5.5" cx="43.2" stroke-width="1.44" stroke="#c49c59"/>
 <circle xmlns="http://www.w3.org/2000/svg" cy="43.2" r="1.98" id="connector5006pin" fill="none" connectorname="6.5" cx="50.4" stroke-width="1.44" stroke="#c49c59"/>
 <circle xmlns="http://www.w3.org/2000/svg" cy="43.2" r="1.98" id="connector5007pin" fill="none" connectorname="7.5" cx="57.6" stroke-width="1.44" stroke="#c49c59"/>
 <circle xmlns="http://www.w3.org/2000/svg" cy="43.2" r="1.98" id="connector5008pin" fill="none" connectorname="8.5" cx="64.8" stroke-width="1.44" stroke="#c49c59"/>
 <circle xmlns="http://www.w3.org/2000/svg" cy="43.2" r="1.98" id="connector5009pin" fill="none" connectorname="9.5" cx="72" stroke-width="1.44" stroke="#c49c59"/>
 <circle xmlns="http://www.w3.org/2000/svg" cy="43.2" r="1.98" id="connector5010pin" fill="none" connectorname="10.5" cx="79.2" stroke-width="1.44" stroke="#c49c59"/>
 <circle xmlns="http://www.w3.org/2000/svg" cy="43.2" r="1.98" id="connector5011pin" fill="none" connectorname="11.5" cx="86.4" stroke-width="1.44" stroke="#c49c59"/>
 <circle xmlns="http://www.w3.org/2000/svg" cy="50.4" r="1.98" id="connector6000pin" fill="none" connectorname="0.6" cx="7.2" stroke-width="1.44" stroke="#c49c59"/>
 <circle xmlns="http://www.w3.org/2000/svg" cy="50.4" r="1.98" id="connector6001pin" fill="none" connectorname="1.6" cx="14.4" stroke-width="1.44" stroke="#c49c59"/>
 <circle xmlns="http://www.w3.org/2000/svg" cy="50.4" r="1.98" id="connector6002pin" fill="none" connectorname="2.6" cx="21.6" stroke-width="1.44" stroke="#c49c59"/>
 <circle xmlns="http://www.w3.org/2000/svg" cy="50.4" r="1.98" id="connector6003pin" fill="none" connectorname="3.6" cx="28.8" stroke-width="1.44" stroke="#c49c59"/>
 <circle xmlns="http://www.w3.org/2000/svg" cy="50.4" r="1.98" id="connector6004pin" fill="none" connectorname="4.6" cx="36" stroke-width="1.44" stroke="#c49c59"/>
 <circle xmlns="http://www.w3.org/2000/svg" cy="50.4" r="1.98" id="connector6005pin" fill="none" connectorname="5.6" cx="43.2" stroke-width="1.44" stroke="#c49c59"/>
 <circle xmlns="http://www.w3.org/2000/svg" cy="50.4" r="1.98" id="connector6006pin" fill="none" connectorname="6.6" cx="50.4" stroke-width="1.44" stroke="#c49c59"/>
 <circle xmlns="http://www.w3.org/2000/svg" cy="50.4" r="1.98" id="connector6007pin" fill="none" connectorname="7.6" cx="57.6" stroke-width="1.44" stroke="#c49c59"/>
 <circle xmlns="http://www.w3.org/2000/svg" cy="50.4" r="1.98" id="connector6008pin" fill="none" connectorname="8.6" cx="64.8" stroke-width="1.44" stroke="#c49c59"/>
 <circle xmlns="http://www.w3.org/2000/svg" cy="50.4" r="1.98" id="connector6009pin" fill="none" connectorname="9.6" cx="72" stroke-width="1.44" stroke="#c49c59"/>
 <circle xmlns="http://www.w3.org/2000/svg" cy="50.4" r="1.98" id="connector6010pin" fill="none" connectorname="10.6" cx="79.2" stroke-width="1.44" stroke="#c49c59"/>
 <circle xmlns="http://www.w3.org/2000/svg" cy="50.4" r="1.98" id="connector6011pin" fill="none" connectorname="11.6" cx="86.4" stroke-width="1.44" stroke="#c49c59"/>
 <circle xmlns="http://www.w3.org/2000/svg" cy="57.6" r="1.98" id="connector7000pin" fill="none" connectorname="0.7" cx="7.2" stroke-width="1.44" stroke="#c49c59"/>
 <circle xmlns="http://www.w3.org/2000/svg" cy="57.6" r="1.98" id="connector7001pin" fill="none" connectorname="1.7" cx="14.4" stroke-width="1.44" stroke="#c49c59"/>
 <circle xmlns="http://www.w3.org/2000/svg" cy="57.6" r="1.98" id="connector7002pin" fill="none" connectorname="2.7" cx="21.6" stroke-width="1.44" stroke="#c49c59"/>
 <circle xmlns="http://www.w3.org/2000/svg" cy="57.6" r="1.98" id="connector7003pin" fill="none" connectorname="3.7" cx="28.8" stroke-width="1.44" stroke="#c49c59"/>
 <circle xmlns="http://www.w3.org/2000/svg" cy="57.6" r="1.98" id="connector7004pin" fill="none" connectorname="4.7" cx="36" stroke-width="1.44" stroke="#c49c59"/>
 <circle xmlns="http://www.w3.org/2000/svg" cy="57.6" r="1.98" id="connector7005pin" fill="none" connectorname="5.7" cx="43.2" stroke-width="1.44" stroke="#c49c59"/>
 <circle xmlns="http://www.w3.org/2000/svg" cy="57.6" r="1.98" id="connector7006pin" fill="none" connectorname="6.7" cx="50.4" stroke-width="1.44" stroke="#c49c59"/>
 <circle xmlns="http://www.w3.org/2000/svg" cy="57.6" r="1.98" id="connector7007pin" fill="none" connectorname="7.7" cx="57.6" stroke-width="1.44" stroke="#c49c59"/>
 <circle xmlns="http://www.w3.org/2000/svg" cy="57.6" r="1.98" id="connector7008pin" fill="none" connectorname="8.7" cx="64.8" stroke-width="1.44" stroke="#c49c59"/>
 <circle xmlns="http://www.w3.org/2000/svg" cy="57.6" r="1.98" id="connector7009pin" fill="none" connectorname="9.7" cx="72" stroke-width="1.44" stroke="#c49c59"/>
 <circle xmlns="http://www.w3.org/2000/svg" cy="57.6" r="1.98" id="connector7010pin" fill="none" connectorname="10.7" cx="79.2" stroke-width="1.44" stroke="#c49c59"/>
 <circle xmlns="http://www.w3.org/2000/svg" cy="57.6" r="1.98" id="connector7011pin" fill="none" connectorname="11.7" cx="86.4" stroke-width="1.44" stroke="#c49c59"/>
 <circle xmlns="http://www.w3.org/2000/svg" cy="64.8" r="1.98" id="connector8000pin" fill="none" connectorname="0.8" cx="7.2" stroke-width="1.44" stroke="#c49c59"/>
 <circle xmlns="http://www.w3.org/2000/svg" cy="64.8" r="1.98" id="connector8001pin" fill="none" connectorname="1.8" cx="14.4" stroke-width="1.44" stroke="#c49c59"/>
 <circle xmlns="http://www.w3.org/2000/svg" cy="64.8" r="1.98" id="connector8002pin" fill="none" connectorname="2.8" cx="21.6" stroke-width="1.44" stroke="#c49c59"/>
 <circle xmlns="http://www.w3.org/2000/svg" cy="64.8" r="1.98" id="connector8003pin" fill="none" connectorname="3.8" cx="28.8" stroke-width="1.44" stroke="#c49c59"/>
 <circle xmlns="http://www.w3.org/2000/svg" cy="64.8" r="1.98" id="connector8004pin" fill="none" connectorname="4.8" cx="36" stroke-width="1.44" stroke="#c49c59"/>
 <circle xmlns="http://www.w3.org/2000/svg" cy="64.8" r="1.98" id="connector8005pin" fill="none" connectorname="5.8" cx="43.2" stroke-width="1.44" stroke="#c49c59"/>
 <circle xmlns="http://www.w3.org/2000/svg" cy="64.8" r="1.98" id="connector8006pin" fill="none" connectorname="6.8" cx="50.4" stroke-width="1.44" stroke="#c49c59"/>
 <circle xmlns="http://www.w3.org/2000/svg" cy="64.8" r="1.98" id="connector8007pin" fill="none" connectorname="7.8" cx="57.6" stroke-width="1.44" stroke="#c49c59"/>
 <circle xmlns="http://www.w3.org/2000/svg" cy="64.8" r="1.98" id="connector8008pin" fill="none" connectorname="8.8" cx="64.8" stroke-width="1.44" stroke="#c49c59"/>
 <circle xmlns="http://www.w3.org/2000/svg" cy="64.8" r="1.98" id="connector8009pin" fill="none" connectorname="9.8" cx="72" stroke-width="1.44" stroke="#c49c59"/>
 <circle xmlns="http://www.w3.org/2000/svg" cy="64.8" r="1.98" id="connector8010pin" fill="none" connectorname="10.8" cx="79.2" stroke-width="1.44" stroke="#c49c59"/>
 <circle xmlns="http://www.w3.org/2000/svg" cy="64.8" r="1.98" id="connector8011pin" fill="none" connectorname="11.8" cx="86.4" stroke-width="1.44" stroke="#c49c59"/>
 <circle xmlns="http://www.w3.org/2000/svg" cy="72" r="1.98" id="connector9000pin" fill="none" connectorname="0.9" cx="7.2" stroke-width="1.44" stroke="#c49c59"/>
 <circle xmlns="http://www.w3.org/2000/svg" cy="72" r="1.98" id="connector9001pin" fill="none" connectorname="1.9" cx="14.4" stroke-width="1.44" stroke="#c49c59"/>
 <circle xmlns="http://www.w3.org/2000/svg" cy="72" r="1.98" id="connector9002pin" fill="none" connectorname="2.9" cx="21.6" stroke-width="1.44" stroke="#c49c59"/>
 <circle xmlns="http://www.w3.org/2000/svg" cy="72" r="1.98" id="connector9003pin" fill="none" connectorname="3.9" cx="28.8" stroke-width="1.44" stroke="#c49c59"/>
 <circle xmlns="http://www.w3.org/2000/svg" cy="72" r="1.98" id="connector9004pin" fill="none" connectorname="4.9" cx="36" stroke-width="1.44" stroke="#c49c59"/>
 <circle xmlns="http://www.w3.org/2000/svg" cy="72" r="1.98" id="connector9005pin" fill="none" connectorname="5.9" cx="43.2" stroke-width="1.44" stroke="#c49c59"/>
 <circle xmlns="http://www.w3.org/2000/svg" cy="72" r="1.98" id="connector9006pin" fill="none" connectorname="6.9" cx="50.4" stroke-width="1.44" stroke="#c49c59"/>
 <circle xmlns="http://www.w3.org/2000/svg" cy="72" r="1.98" id="connector9007pin" fill="none" connectorname="7.9" cx="57.6" stroke-width="1.44" stroke="#c49c59"/>
 <circle xmlns="http://www.w3.org/2000/svg" cy="72" r="1.98" id="connector9008pin" fill="none" connectorname="8.9" cx="64.8" stroke-width="1.44" stroke="#c49c59"/>
 <circle xmlns="http://www.w3.org/2000/svg" cy="72" r="1.98" id="connector9009pin" fill="none" connectorname="9.9" cx="72" stroke-width="1.44" stroke="#c49c59"/>
 <circle xmlns="http://www.w3.org/2000/svg" cy="72" r="1.98" id="connector9010pin" fill="none" connectorname="10.9" cx="79.2" stroke-width="1.44" stroke="#c49c59"/>
 <circle xmlns="http://www.w3.org/2000/svg" cy="72" r="1.98" id="connector9011pin" fill="none" connectorname="11.9" cx="86.4" stroke-width="1.44" stroke="#c49c59"/>
 <circle xmlns="http://www.w3.org/2000/svg" cy="79.2" r="1.98" id="connector10000pin" fill="none" connectorname="0.10" cx="7.2" stroke-width="1.44" stroke="#c49c59"/>
 <circle xmlns="http://www.w3.org/2000/svg" cy="79.2" r="1.98" id="connector10001pin" fill="none" connectorname="1.10" cx="14.4" stroke-width="1.44" stroke="#c49c59"/>
 <circle xmlns="http://www.w3.org/2000/svg" cy="79.2" r="1.98" id="connector10002pin" fill="none" connectorname="2.10" cx="21.6" stroke-width="1.44" stroke="#c49c59"/>
 <circle xmlns="http://www.w3.org/2000/svg" cy="79.2" r="1.98" id="connector10003pin" fill="none" connectorname="3.10" cx="28.8" stroke-width="1.44" stroke="#c49c59"/>
 <circle xmlns="http://www.w3.org/2000/svg" cy="79.2" r="1.98" id="connector10004pin" fill="none" connectorname="4.10" cx="36" stroke-width="1.44" stroke="#c49c59"/>
 <circle xmlns="http://www.w3.org/2000/svg" cy="79.2" r="1.98" id="connector10005pin" fill="none" connectorname="5.10" cx="43.2" stroke-width="1.44" stroke="#c49c59"/>
 <circle xmlns="http://www.w3.org/2000/svg" cy="79.2" r="1.98" id="connector10006pin" fill="none" connectorname="6.10" cx="50.4" stroke-width="1.44" stroke="#c49c59"/>
 <circle xmlns="http://www.w3.org/2000/svg" cy="79.2" r="1.98" id="connector10007pin" fill="none" connectorname="7.10" cx="57.6" stroke-width="1.44" stroke="#c49c59"/>
 <circle xmlns="http://www.w3.org/2000/svg" cy="79.2" r="1.98" id="connector10008pin" fill="none" connectorname="8.10" cx="64.8" stroke-width="1.44" stroke="#c49c59"/>
 <circle xmlns="http://www.w3.org/2000/svg" cy="79.2" r="1.98" id="connector10009pin" fill="none" connectorname="9.10" cx="72" stroke-width="1.44" stroke="#c49c59"/>
 <circle xmlns="http://www.w3.org/2000/svg" cy="79.2" r="1.98" id="connector10010pin" fill="none" connectorname="10.10" cx="79.2" stroke-width="1.44" stroke="#c49c59"/>
 <circle xmlns="http://www.w3.org/2000/svg" cy="79.2" r="1.98" id="connector10011pin" fill="none" connectorname="11.10" cx="86.4" stroke-width="1.44" stroke="#c49c59"/>
 <circle xmlns="http://www.w3.org/2000/svg" cy="86.4" r="1.98" id="connector11000pin" fill="none" connectorname="0.11" cx="7.2" stroke-width="1.44" stroke="#c49c59"/>
 <circle xmlns="http://www.w3.org/2000/svg" cy="86.4" r="1.98" id="connector11001pin" fill="none" connectorname="1.11" cx="14.4" stroke-width="1.44" stroke="#c49c59"/>
 <circle xmlns="http://www.w3.org/2000/svg" cy="86.4" r="1.98" id="connector11002pin" fill="none" connectorname="2.11" cx="21.6" stroke-width="1.44" stroke="#c49c59"/>
 <circle xmlns="http://www.w3.org/2000/svg" cy="86.4" r="1.98" id="connector11003pin" fill="none" connectorname="3.11" cx="28.8" stroke-width="1.44" stroke="#c49c59"/>
 <circle xmlns="http://www.w3.org/2000/svg" cy="86.4" r="1.98" id="connector11004pin" fill="none" connectorname="4.11" cx="36" stroke-width="1.44" stroke="#c49c59"/>
 <circle xmlns="http://www.w3.org/2000/svg" cy="86.4" r="1.98" id="connector11005pin" fill="none" connectorname="5.11" cx="43.2" stroke-width="1.44" stroke="#c49c59"/>
 <circle xmlns="http://www.w3.org/2000/svg" cy="86.4" r="1.98" id="connector11006pin" fill="none" connectorname="6.11" cx="50.4" stroke-width="1.44" stroke="#c49c59"/>
 <circle xmlns="http://www.w3.org/2000/svg" cy="86.4" r="1.98" id="connector11007pin" fill="none" connectorname="7.11" cx="57.6" stroke-width="1.44" stroke="#c49c59"/>
 <circle xmlns="http://www.w3.org/2000/svg" cy="86.4" r="1.98" id="connector11008pin" fill="none" connectorname="8.11" cx="64.8" stroke-width="1.44" stroke="#c49c59"/>
 <circle xmlns="http://www.w3.org/2000/svg" cy="86.4" r="1.98" id="connector11009pin" fill="none" connectorname="9.11" cx="72" stroke-width="1.44" stroke="#c49c59"/>
 <circle xmlns="http://www.w3.org/2000/svg" cy="86.4" r="1.98" id="connector11010pin" fill="none" connectorname="10.11" cx="79.2" stroke-width="1.44" stroke="#c49c59"/>
 <circle xmlns="http://www.w3.org/2000/svg" cy="86.4" r="1.98" id="connector11011pin" fill="none" connectorname="11.11" cx="86.4" stroke-width="1.44" stroke="#c49c59"/>
</g>
</g></g><g partID='57810'><g transform='translate(105.203,56.8437)' ><g transform='matrix(1.45717e-16,1,-1,1.45717e-16,0,0)'  ><g xmlns="http://www.w3.org/2000/svg" id="breadboard">
 <rect xmlns="http://www.w3.org/2000/svg" width="2.16" id="rect20" y="18.958" fill="#8C8C8C" height="4.81" x="2.521"/>
 <rect xmlns="http://www.w3.org/2000/svg" width="2.16" id="rect22" y="18.958" fill="#8C8C8C" height="4.81" x="9.721"/>
 <rect xmlns="http://www.w3.org/2000/svg" width="2.16" id="rect24" y="18.958" fill="#8C8C8C" height="4.81" x="16.92"/>
 <rect xmlns="http://www.w3.org/2000/svg" width="2.158" id="rect26" y="18.958" fill="#8C8C8C" height="4.81" x="24.121"/>
 <rect xmlns="http://www.w3.org/2000/svg" width="2.16" id="rect28" y="0.008" fill="#8C8C8C" height="4.81" x="2.521"/>
 <rect xmlns="http://www.w3.org/2000/svg" width="2.16" id="rect30" y="0.008" fill="#8C8C8C" height="4.81" x="9.721"/>
 <rect xmlns="http://www.w3.org/2000/svg" width="2.16" id="rect32" y="0.008" fill="#8C8C8C" height="4.81" x="16.92"/>
 <rect xmlns="http://www.w3.org/2000/svg" width="2.158" id="rect34" y="0.008" fill="#8C8C8C" height="4.81" x="24.121"/>
 <polygon xmlns="http://www.w3.org/2000/svg" id="polygon36" fill="#3D3D3D" points="0,2.168,28.801,2.168,28.26,8.287,0,8.287"/>
 <polygon xmlns="http://www.w3.org/2000/svg" id="polygon38" points="0,15.487,28.26,15.487,28.801,21.607,0,21.607"/>
 <polygon xmlns="http://www.w3.org/2000/svg" id="polygon40" fill="#8C8C8C" points="6.121,3.133,6.121,2.354,4.681,1.692,2.521,1.692,2.521,3.133"/>
 <polygon xmlns="http://www.w3.org/2000/svg" id="polygon42" fill="#8C8C8C" points="13.32,3.133,13.32,2.354,11.88,1.692,9.721,1.692,8.28,2.354,8.28,3.133"/>
 <polygon xmlns="http://www.w3.org/2000/svg" id="polygon44" fill="#8C8C8C" points="26.279,3.133,26.279,1.692,24.121,1.692,22.682,2.354,22.682,3.133"/>
 <polygon xmlns="http://www.w3.org/2000/svg" id="polygon46" fill="#8C8C8C" points="20.521,3.133,20.521,2.354,19.08,1.692,16.92,1.692,15.48,2.354,15.48,3.133"/>
 <polygon xmlns="http://www.w3.org/2000/svg" id="polygon48" fill="#8C8C8C" points="2.521,20.643,2.521,22.083,4.681,22.083,6.121,21.42,6.121,20.643"/>
 <polygon xmlns="http://www.w3.org/2000/svg" id="polygon50" fill="#8C8C8C" points="22.682,20.643,22.682,21.42,24.121,22.083,26.279,22.083,26.279,20.643"/>
 <polygon xmlns="http://www.w3.org/2000/svg" id="polygon52" fill="#8C8C8C" points="8.28,20.643,8.28,21.42,9.721,22.083,11.88,22.083,13.32,21.42,13.32,20.643"/>
 <polygon xmlns="http://www.w3.org/2000/svg" id="polygon54" fill="#8C8C8C" points="15.48,20.643,15.48,21.42,16.92,22.083,19.08,22.083,20.521,21.42,20.521,20.643"/>
 <polygon xmlns="http://www.w3.org/2000/svg" id="polygon56" fill="#141414" points="28.801,2.168,28.26,3.938,27.255,3.938,27.255,19.829,28.26,19.836,28.801,21.607"/>
 <polygon xmlns="http://www.w3.org/2000/svg" id="polygon58" fill="#1F1F1F" points="0,2.168,0.541,3.938,0.541,8.287,3.601,8.287,3.601,15.487,0.541,15.487,0.541,19.836,0,21.607"/>
 <polygon xmlns="http://www.w3.org/2000/svg" id="polygon60" fill="#1C1C1C" points="3.601,8.287,0.541,8.259,0.404,9.785,0.404,11.88,3.601,11.88"/>
 <polygon xmlns="http://www.w3.org/2000/svg" id="polygon62" fill="#383838" points="0.541,15.523,3.601,15.523,3.601,11.88,0.404,11.88,0.404,13.99"/>
 <path xmlns="http://www.w3.org/2000/svg" d="M0.541,3.938l0,4.313c1.713,0.321,3.017,1.819,3.017,3.628c0,1.808,-1.296,3.313,-3.017,3.637l0,4.313L28.26,19.829L28.26,3.938L0.541,3.938z" id="path64" fill="#303030"/>
 <path xmlns="http://www.w3.org/2000/svg" d="M0.404,9.785l0,4.195C1.462,13.86,2.29,12.975,2.29,11.88C2.29,10.786,1.469,9.906,0.404,9.785z" id="path66" fill="#262626"/>
 <circle xmlns="http://www.w3.org/2000/svg" cy="16.906" r="1.483" id="circle68" fill="#212121" cx="4.681"/>
</g>
</g></g></g><g partID='58240'><line stroke-linecap='round' stroke='#8c0000' x1='104.599' y1='60.4498' x2='104.599' y2='3.964' stroke-width='3.2' /><line stroke-linecap='round' stroke='#cc1414' x1='104.599' y1='60.4498' x2='104.599' y2='3.964' stroke-width='1.6' /></g><g partID='58300'><line stroke-linecap='round' stroke='#000000' x1='75.8626' y1='82.0866' x2='82.9991' y2='82.0497' stroke-width='3.2' /><line stroke-linecap='round' stroke='#404040' x1='75.8626' y1='82.0866' x2='82.9991' y2='82.0497' stroke-width='1.6' /></g><g partID='58270'><line stroke-linecap='round' stroke='#000000' x1='75.8626' y1='3.2' x2='75.8626' y2='82.0869' stroke-width='3.2' /><line stroke-linecap='round' stroke='#404040' x1='75.8626' y1='3.2' x2='75.8626' y2='82.0869' stroke-width='1.6' /></g><g partID='58330'><line stroke-linecap='round' stroke='#00a0c6' x1='3.5585' y1='97.1442' x2='82.9994' y2='74.8498' stroke-width='3.2' /><line stroke-linecap='round' stroke='#33ffc5' x1='3.5585' y1='97.1442' x2='82.9994' y2='74.8498' stroke-width='1.6' /></g><g partID='58360'><line stroke-linecap='round' stroke='#1b5bb3' x1='183.877' y1='75.0238' x2='104.599' y2='74.8498' stroke-width='3.2' /><line stroke-linecap='round' stroke='#418dd9' x1='183.877' y1='75.0238' x2='104.599' y2='74.8498' stroke-width='1.6' /></g><g partID='58390'><line stroke-linecap='round' stroke='#00a527' x1='182.92' y1='111.76' x2='104.599' y2='82.0498' stroke-width='3.2' /><line stroke-linecap='round' stroke='#25cc35' x1='182.92' y1='111.76' x2='104.599' y2='82.0498' stroke-width='1.6' /></g><g partID='58420'><line stroke-linecap='round' stroke='#d6d63a' x1='183.877' y1='38.6705' x2='104.599' y2='67.6498' stroke-width='3.2' /><line stroke-linecap='round' stroke='#fff800' x1='183.877' y1='38.6705' x2='104.599' y2='67.6498' stroke-width='1.6' /></g><g partID='58470'><line stroke-linecap='round' stroke='#d6d63a' x1='3.5585' y1='45.6732' x2='82.9994' y2='67.6498' stroke-width='3.2' /><line stroke-linecap='round' stroke='#fff800' x1='3.5585' y1='45.6732' x2='82.9994' y2='67.6498' stroke-width='1.6' /></g></svg>